<svg width="723" height="237" viewBox="0 0 723 237" fill="none" xmlns="http://www.w3.org/2000/svg">
<path d="M42.6586 0.87995C65.2034 10.1306 87.1708 19.7535 108.884 29.9325C114.465 32.5492 119.233 32.5461 124.886 30.0069C145.087 20.9338 165.494 12.3178 185.838 3.56518C195.421 -0.557321 201.261 3.40667 201.453 14.0401C201.507 16.9866 201.001 19.9877 201.846 22.9398C205.461 23.2836 208.163 21.2788 211.183 20.5252C217.738 18.8894 221.731 21.6849 221.721 28.4119C221.669 64.2223 219.956 99.9898 218.858 135.773C218.715 140.436 218.632 145.105 218.724 149.767C218.788 153.048 217.697 154.618 214.139 154.641C205.147 154.701 196.155 154.981 187.168 155.315C183.514 155.451 182.012 154.006 182.22 150.321C183.94 119.892 183.036 89.3888 184.851 58.953C185.472 48.5574 184.95 38.0937 184.95 27.6801C182.553 27.2187 181.021 28.4227 179.393 29.1183C160.711 37.1014 142.004 45.0276 123.414 53.219C118.626 55.3288 114.427 55.378 109.622 53.1983C89.6039 44.1173 69.4556 35.3224 49.3491 26.4355C48.4618 26.0432 47.5187 25.777 45.9554 25.2232C45.5326 33.1357 44.9405 40.6714 44.7592 48.2169C43.9594 81.5148 43.2779 114.815 42.5531 148.115C42.5422 148.615 42.5347 149.115 42.5107 149.614C41.8831 162.65 41.8646 162.689 53.9549 168.338C71.6088 176.587 89.2982 184.759 106.953 193.004C108.838 193.885 110.944 194.526 112.725 196.717C105.748 200.307 98.6209 201.616 91.4572 202.583C71.9566 205.216 53.3445 202.292 35.6349 193.528C26.6806 189.097 17.5823 184.945 8.44982 180.89C2.60087 178.293 -0.250163 174.329 0.017202 167.696C1.19716 138.423 2.13619 109.141 3.1789 79.8623C3.80092 62.3963 4.45275 44.9314 5.09235 27.4661C5.38497 19.4759 10.6001 15.6062 19.1592 17.2C21.909 17.712 24.5805 18.6438 27.4335 19.4234C29.123 16.4909 29.015 13.5141 29.062 10.558C29.2064 1.46882 33.5391 -1.73336 42.6586 0.87995Z" fill="#560D0D"/>
<path d="M718.022 106.863C731.792 139.723 714.204 175.561 680.75 182.49C661.179 186.544 643.303 181.997 629.763 166.865C615.625 151.064 611.876 132.263 618.455 111.928C625.397 90.4691 643.621 76.6206 665.924 75.2922C687.923 73.9819 708.441 86.3205 718.022 106.863ZM644.691 122.122C642.436 131.191 643.96 139.656 649.007 147.44C658.574 162.195 680.614 161.852 689.593 146.719C695.011 137.586 695.616 127.763 692.073 117.839C687.971 106.347 678.635 100.344 666.478 101.412C654.292 102.482 648.261 110.559 644.691 122.122Z" fill="black"/>
<path d="M505.037 178.769C503.575 181.053 501.59 180.544 499.833 180.567C494.503 180.636 489.171 180.606 483.84 180.583C477.19 180.555 477.185 180.542 477.015 174.122C476.984 172.982 477.01 171.84 477.01 169.647C470.6 176.178 463.856 180.396 455.68 182.002C431.183 186.812 410.706 173.802 410.999 147.148C411.232 125.993 411.133 104.833 410.948 83.6769C410.91 79.406 412.041 77.6343 416.553 77.8935C422.365 78.2274 428.219 78.1722 434.038 77.9135C438.209 77.7282 439.567 79.357 439.531 83.4265C439.379 100.751 439.415 118.078 439.471 135.404C439.485 139.875 439.127 144.426 440.964 148.707C442.938 153.308 446.215 156.217 451.283 157.144C467.387 160.089 476.821 152.046 477.006 134.738C477.188 117.747 477.205 100.75 476.957 83.7613C476.888 79.0707 478.479 77.631 482.973 77.9004C488.285 78.2187 493.652 78.277 498.956 77.8979C504.009 77.5366 505.623 79.3477 505.569 84.4001C505.343 105.722 505.497 127.048 505.456 148.372C505.438 158.362 505.294 168.352 505.037 178.769Z" fill="black"/>
<path d="M84.6369 211.305C104.223 210.123 121.166 202.655 137.392 193.149C145.25 188.545 153.044 183.833 160.213 177.4C157.479 174.47 154.973 171.854 152.554 169.158C151.439 167.915 150.318 166.505 151.296 164.694C152.126 163.157 153.73 163.105 155.241 163.077C175.04 162.706 194.839 162.274 214.64 162.036C219.802 161.974 221.347 164.313 219.523 169.007C213.436 184.669 207.276 200.302 201.052 215.911C199.383 220.097 197.908 220.26 194.454 217.388C191.193 214.677 189.046 209.142 184.864 209.506C181.262 209.819 178.066 213.927 174.541 216.117C135.252 240.525 94.9827 244.354 53.5807 221.582C45.6421 217.215 38.9133 211.236 32.8085 204.563C32.2693 203.973 31.58 203.423 32.1788 201.88C48.6116 209.879 65.9079 213.489 84.6369 211.305Z" fill="#2B5229"/>
<path d="M84.6369 211.305C104.223 210.123 121.166 202.655 137.392 193.149C145.25 188.545 153.044 183.833 160.213 177.4C157.479 174.47 154.973 171.854 152.554 169.158C151.439 167.915 150.318 166.505 151.296 164.694C152.126 163.157 153.73 163.105 155.241 163.077C175.04 162.706 194.839 162.274 214.64 162.036C219.802 161.974 221.347 164.313 219.523 169.007C213.436 184.669 207.276 200.302 201.052 215.911C199.383 220.097 197.908 220.26 194.454 217.388C191.193 214.677 189.046 209.142 184.864 209.506C181.262 209.819 178.066 213.927 174.541 216.117C135.252 240.525 94.9827 244.354 53.5807 221.582C45.6421 217.215 38.9133 211.236 32.8085 204.563C32.2693 203.973 31.58 203.423 32.1788 201.88C48.6116 209.879 65.9079 213.489 84.6369 211.305Z" fill="#2B5229"/>
<path d="M84.6369 211.305C104.223 210.123 121.166 202.655 137.392 193.149C145.25 188.545 153.044 183.833 160.213 177.4C157.479 174.47 154.973 171.854 152.554 169.158C151.439 167.915 150.318 166.505 151.296 164.694C152.126 163.157 153.73 163.105 155.241 163.077C175.04 162.706 194.839 162.274 214.64 162.036C219.802 161.974 221.347 164.313 219.523 169.007C213.436 184.669 207.276 200.302 201.052 215.911C199.383 220.097 197.908 220.26 194.454 217.388C191.193 214.677 189.046 209.142 184.864 209.506C181.262 209.819 178.066 213.927 174.541 216.117C135.252 240.525 94.9827 244.354 53.5807 221.582C45.6421 217.215 38.9133 211.236 32.8085 204.563C32.2693 203.973 31.58 203.423 32.1788 201.88C48.6116 209.879 65.9079 213.489 84.6369 211.305Z" fill="#76A21E"/>
<path d="M286.959 98.8223C284.453 99.42 282.288 99.7672 280.296 100.552C277.695 101.577 275.808 103.32 275.727 106.478C275.652 109.405 277.311 111.119 279.562 112.431C284.105 115.08 289.244 115.882 294.273 116.996C301.95 118.696 309.448 120.725 315.744 125.859C330.542 137.925 330.428 166.082 309.122 176.842C289.142 186.932 269.148 184.563 249.947 173.673C248.407 172.799 247.343 171.521 247.335 169.686C247.299 162.229 247.32 154.771 247.32 147.463C250.165 146.524 251.256 148.403 252.649 149.36C263.157 156.585 274.604 160.403 287.477 159.15C288.956 159.006 290.486 158.84 291.866 158.338C295.283 157.094 298.427 155.252 298.533 151.127C298.636 147.135 296.013 144.769 292.572 143.294C288.267 141.448 283.685 140.552 279.143 139.511C275.901 138.769 272.652 138.007 269.482 137.011C255.488 132.616 247.952 123.431 247.282 110.117C246.544 95.4582 252.669 84.8738 266.29 79.2874C282.755 72.5345 299.169 74.0022 315.195 81.3438C318.225 82.7316 319.74 84.8532 319.633 88.3747C319.439 94.7659 319.578 101.167 319.578 108.923C308.793 102.226 298.725 98.2194 286.959 98.8223Z" fill="black"/>
<path d="M541.623 159.911C531.609 132.771 521.753 105.988 511.625 78.4686C521.74 77.6363 530.827 77.78 539.889 78.2855C542.451 78.4284 542.619 81.3755 543.291 83.3354C550.087 103.151 556.827 122.987 563.565 142.823C564.15 144.543 564.621 146.3 566.329 148.181C568.667 141.082 570.918 134.349 573.103 127.596C577.916 112.72 582.81 97.868 587.414 82.9274C588.616 79.0298 590.615 77.7391 594.602 77.8861C602.349 78.1717 610.114 77.9697 618.483 77.9697C616.771 85.911 613.827 92.4292 611.444 99.0951C602.319 124.626 592.918 150.059 583.821 175.6C582.493 179.33 580.729 180.923 576.665 180.751C569.518 180.45 562.338 180.431 555.194 180.763C550.834 180.965 548.444 179.564 547.186 175.292C545.686 170.195 543.608 165.268 541.623 159.911Z" fill="black"/>
<path d="M345.532 154.728C345.343 138.792 345.025 123.299 345.213 107.812C345.273 102.836 343.927 101.028 338.789 101.196C327.901 101.553 329.175 101.817 329.087 91.6043C329.086 91.4377 329.079 91.2706 329.088 91.1045C329.306 87.1273 327.583 82.3372 329.832 79.3744C332.302 76.1195 337.312 78.2177 341.192 78.0471C344.312 77.9099 345.227 76.571 345.168 73.7173C345.07 69.0548 345.229 64.3874 345.164 59.7236C345.129 57.2404 345.805 55.4585 348.565 55.1403C356.634 54.2101 364.704 53.2843 373.748 52.2448C373.748 59.1002 374.052 65.548 373.651 71.9517C373.34 76.9165 375.206 78.3803 379.922 78.0512C384.896 77.7042 389.915 78.0751 394.91 77.956C398.015 77.882 399.589 79.0144 399.527 82.2744C399.435 87.1042 399.434 91.9373 399.497 96.7677C399.539 99.9006 398.156 101.339 394.995 101.298C389.664 101.227 384.325 101.462 379.004 101.232C374.802 101.05 373.603 102.791 373.669 106.834C373.877 119.659 373.676 132.491 373.773 145.318C373.853 155.777 376.625 158.442 386.906 157.989C390.531 157.829 394.136 157.192 398.559 156.679C398.559 163.713 398.654 170.462 398.499 177.205C398.455 179.13 396.545 179.805 394.961 180.306C386.402 183.016 377.64 183.846 368.844 182.013C354.586 179.041 348.521 171.849 345.532 154.728Z" fill="black"/>
<path d="M106.556 131.266C119.412 135.246 130.886 134.138 140.505 124.357C143.392 121.42 146.51 120.028 150.177 122.797C153.274 125.136 153.171 128.654 150.122 132.95C136.52 152.117 100.705 151.973 87.2247 132.685C84.9269 129.397 83.8619 125.873 87.3966 122.876C90.951 119.861 94.1991 121.458 97.0001 124.421C99.6521 127.226 102.576 129.645 106.556 131.266Z" fill="black"/>
<path d="M158.221 87.8703C156.194 95.6873 151.449 99.8925 145.57 99.3892C140.228 98.9319 135.681 94.4539 135.063 89.0396C134.086 80.4943 138.622 73.835 145.773 73.3146C152.901 72.7959 157.684 78.1992 158.221 87.8703Z" fill="black"/>
<path d="M101.91 83.1957C103.461 90.8499 100.088 97.6082 94.1554 99.3515C88.1548 101.115 81.8145 97.8673 79.6477 91.9205C77.1058 84.9445 80.1995 77.2661 86.5711 74.7366C92.7167 72.2968 98.6127 75.4229 101.91 83.1957Z" fill="black"/>
<path d="M311.999 219.068H319.399V220.348H311.999V219.068ZM312.159 226.288H310.679V212.288H320.279V213.568H312.159V226.288ZM323.936 226.288V212.288H329.176C330.362 212.288 331.382 212.481 332.236 212.868C333.089 213.241 333.742 213.788 334.196 214.508C334.662 215.215 334.896 216.075 334.896 217.088C334.896 218.075 334.662 218.928 334.196 219.648C333.742 220.355 333.089 220.901 332.236 221.288C331.382 221.661 330.362 221.848 329.176 221.848H324.756L325.416 221.168V226.288H323.936ZM333.496 226.288L329.896 221.208H331.496L335.116 226.288H333.496ZM325.416 221.288L324.756 220.588H329.136C330.536 220.588 331.596 220.281 332.316 219.668C333.049 219.055 333.416 218.195 333.416 217.088C333.416 215.968 333.049 215.101 332.316 214.488C331.596 213.875 330.536 213.568 329.136 213.568H324.756L325.416 212.868V221.288ZM345.109 226.408C344.055 226.408 343.075 226.235 342.169 225.888C341.275 225.528 340.495 225.028 339.829 224.388C339.175 223.735 338.662 222.981 338.289 222.128C337.929 221.261 337.749 220.315 337.749 219.288C337.749 218.261 337.929 217.321 338.289 216.468C338.662 215.601 339.175 214.848 339.829 214.208C340.495 213.555 341.275 213.055 342.169 212.708C343.062 212.348 344.042 212.168 345.109 212.168C346.162 212.168 347.135 212.348 348.029 212.708C348.922 213.055 349.695 213.548 350.349 214.188C351.015 214.828 351.529 215.581 351.889 216.448C352.262 217.315 352.449 218.261 352.449 219.288C352.449 220.315 352.262 221.261 351.889 222.128C351.529 222.995 351.015 223.748 350.349 224.388C349.695 225.028 348.922 225.528 348.029 225.888C347.135 226.235 346.162 226.408 345.109 226.408ZM345.109 225.088C345.949 225.088 346.722 224.948 347.429 224.668C348.149 224.375 348.769 223.968 349.289 223.448C349.822 222.915 350.235 222.301 350.529 221.608C350.822 220.901 350.969 220.128 350.969 219.288C350.969 218.448 350.822 217.681 350.529 216.988C350.235 216.281 349.822 215.668 349.289 215.148C348.769 214.615 348.149 214.208 347.429 213.928C346.722 213.635 345.949 213.488 345.109 213.488C344.269 213.488 343.489 213.635 342.769 213.928C342.049 214.208 341.422 214.615 340.889 215.148C340.369 215.668 339.955 216.281 339.649 216.988C339.355 217.681 339.209 218.448 339.209 219.288C339.209 220.115 339.355 220.881 339.649 221.588C339.955 222.295 340.369 222.915 340.889 223.448C341.422 223.968 342.049 224.375 342.769 224.668C343.489 224.948 344.269 225.088 345.109 225.088ZM356.366 226.288V212.288H357.586L363.986 223.208H363.346L369.686 212.288H370.906V226.288H369.486V214.508H369.826L363.986 224.508H363.286L357.406 214.508H357.786V226.288H356.366ZM388.022 226.408C386.969 226.408 385.989 226.235 385.082 225.888C384.189 225.528 383.409 225.028 382.742 224.388C382.089 223.735 381.575 222.981 381.202 222.128C380.842 221.261 380.662 220.315 380.662 219.288C380.662 218.261 380.842 217.321 381.202 216.468C381.575 215.601 382.089 214.848 382.742 214.208C383.409 213.555 384.189 213.055 385.082 212.708C385.975 212.348 386.955 212.168 388.022 212.168C389.075 212.168 390.049 212.348 390.942 212.708C391.835 213.055 392.609 213.548 393.262 214.188C393.929 214.828 394.442 215.581 394.802 216.448C395.175 217.315 395.362 218.261 395.362 219.288C395.362 220.315 395.175 221.261 394.802 222.128C394.442 222.995 393.929 223.748 393.262 224.388C392.609 225.028 391.835 225.528 390.942 225.888C390.049 226.235 389.075 226.408 388.022 226.408ZM388.022 225.088C388.862 225.088 389.635 224.948 390.342 224.668C391.062 224.375 391.682 223.968 392.202 223.448C392.735 222.915 393.149 222.301 393.442 221.608C393.735 220.901 393.882 220.128 393.882 219.288C393.882 218.448 393.735 217.681 393.442 216.988C393.149 216.281 392.735 215.668 392.202 215.148C391.682 214.615 391.062 214.208 390.342 213.928C389.635 213.635 388.862 213.488 388.022 213.488C387.182 213.488 386.402 213.635 385.682 213.928C384.962 214.208 384.335 214.615 383.802 215.148C383.282 215.668 382.869 216.281 382.562 216.988C382.269 217.681 382.122 218.448 382.122 219.288C382.122 220.115 382.269 220.881 382.562 221.588C382.869 222.295 383.282 222.915 383.802 223.448C384.335 223.968 384.962 224.375 385.682 224.668C386.402 224.948 387.182 225.088 388.022 225.088ZM399.279 226.288V212.288H400.499L410.159 224.448H409.519V212.288H410.979V226.288H409.759L400.119 214.128H400.759V226.288H399.279ZM417.469 218.548H424.869V219.808H417.469V218.548ZM417.629 225.008H426.049V226.288H416.149V212.288H425.749V213.568H417.629V225.008ZM439.822 226.408C438.782 226.408 437.782 226.241 436.822 225.908C435.876 225.561 435.142 225.121 434.622 224.588L435.202 223.448C435.696 223.928 436.356 224.335 437.182 224.668C438.022 224.988 438.902 225.148 439.822 225.148C440.702 225.148 441.416 225.041 441.962 224.828C442.522 224.601 442.929 224.301 443.182 223.928C443.449 223.555 443.582 223.141 443.582 222.688C443.582 222.141 443.422 221.701 443.102 221.368C442.796 221.035 442.389 220.775 441.882 220.588C441.376 220.388 440.816 220.215 440.202 220.068C439.589 219.921 438.976 219.768 438.362 219.608C437.749 219.435 437.182 219.208 436.662 218.928C436.156 218.648 435.742 218.281 435.422 217.828C435.116 217.361 434.962 216.755 434.962 216.008C434.962 215.315 435.142 214.681 435.502 214.108C435.876 213.521 436.442 213.055 437.202 212.708C437.962 212.348 438.936 212.168 440.122 212.168C440.909 212.168 441.689 212.281 442.462 212.508C443.236 212.721 443.902 213.021 444.462 213.408L443.962 214.588C443.362 214.188 442.722 213.895 442.042 213.708C441.376 213.521 440.729 213.428 440.102 213.428C439.262 213.428 438.569 213.541 438.022 213.768C437.476 213.995 437.069 214.301 436.802 214.688C436.549 215.061 436.422 215.488 436.422 215.968C436.422 216.515 436.576 216.955 436.882 217.288C437.202 217.621 437.616 217.881 438.122 218.068C438.642 218.255 439.209 218.421 439.822 218.568C440.436 218.715 441.042 218.875 441.642 219.048C442.256 219.221 442.816 219.448 443.322 219.728C443.842 219.995 444.256 220.355 444.562 220.808C444.882 221.261 445.042 221.855 445.042 222.588C445.042 223.268 444.856 223.901 444.482 224.488C444.109 225.061 443.536 225.528 442.762 225.888C442.002 226.235 441.022 226.408 439.822 226.408ZM459.107 212.288H460.567V226.288H459.107V212.288ZM450.347 226.288H448.867V212.288H450.347V226.288ZM459.247 219.828H450.187V218.528H459.247V219.828ZM467.056 218.548H474.456V219.808H467.056V218.548ZM467.216 225.008H475.636V226.288H465.736V212.288H475.336V213.568H467.216V225.008ZM479.715 226.288V212.288H481.195V225.008H489.035V226.288H479.715ZM493.413 219.068H500.813V220.348H493.413V219.068ZM493.573 226.288H492.093V212.288H501.693V213.568H493.573V226.288ZM513.903 226.288V213.568H508.983V212.288H520.303V213.568H515.383V226.288H513.903ZM529.192 226.408C528.139 226.408 527.159 226.235 526.252 225.888C525.359 225.528 524.579 225.028 523.912 224.388C523.259 223.735 522.746 222.981 522.372 222.128C522.012 221.261 521.832 220.315 521.832 219.288C521.832 218.261 522.012 217.321 522.372 216.468C522.746 215.601 523.259 214.848 523.912 214.208C524.579 213.555 525.359 213.055 526.252 212.708C527.146 212.348 528.126 212.168 529.192 212.168C530.246 212.168 531.219 212.348 532.112 212.708C533.006 213.055 533.779 213.548 534.432 214.188C535.099 214.828 535.612 215.581 535.972 216.448C536.346 217.315 536.532 218.261 536.532 219.288C536.532 220.315 536.346 221.261 535.972 222.128C535.612 222.995 535.099 223.748 534.432 224.388C533.779 225.028 533.006 225.528 532.112 225.888C531.219 226.235 530.246 226.408 529.192 226.408ZM529.192 225.088C530.032 225.088 530.806 224.948 531.512 224.668C532.232 224.375 532.852 223.968 533.372 223.448C533.906 222.915 534.319 222.301 534.612 221.608C534.906 220.901 535.052 220.128 535.052 219.288C535.052 218.448 534.906 217.681 534.612 216.988C534.319 216.281 533.906 215.668 533.372 215.148C532.852 214.615 532.232 214.208 531.512 213.928C530.806 213.635 530.032 213.488 529.192 213.488C528.352 213.488 527.572 213.635 526.852 213.928C526.132 214.208 525.506 214.615 524.972 215.148C524.452 215.668 524.039 216.281 523.732 216.988C523.439 217.681 523.292 218.448 523.292 219.288C523.292 220.115 523.439 220.881 523.732 221.588C524.039 222.295 524.452 222.915 524.972 223.448C525.506 223.968 526.132 224.375 526.852 224.668C527.572 224.948 528.352 225.088 529.192 225.088ZM544.044 226.288L550.444 212.288H551.904L558.304 226.288H556.744L550.864 213.148H551.464L545.584 226.288H544.044ZM546.564 222.548L547.004 221.348H555.144L555.584 222.548H546.564ZM561.22 226.288V212.288H562.44L572.1 224.448H571.46V212.288H572.92V226.288H571.7L562.06 214.128H562.7V226.288H561.22ZM584.21 226.408C583.156 226.408 582.176 226.235 581.27 225.888C580.376 225.528 579.596 225.028 578.93 224.388C578.276 223.735 577.763 222.981 577.39 222.128C577.03 221.261 576.85 220.315 576.85 219.288C576.85 218.261 577.03 217.321 577.39 216.468C577.763 215.601 578.276 214.848 578.93 214.208C579.596 213.555 580.376 213.055 581.27 212.708C582.163 212.348 583.143 212.168 584.21 212.168C585.263 212.168 586.236 212.348 587.13 212.708C588.023 213.055 588.796 213.548 589.45 214.188C590.116 214.828 590.63 215.581 590.99 216.448C591.363 217.315 591.55 218.261 591.55 219.288C591.55 220.315 591.363 221.261 590.99 222.128C590.63 222.995 590.116 223.748 589.45 224.388C588.796 225.028 588.023 225.528 587.13 225.888C586.236 226.235 585.263 226.408 584.21 226.408ZM584.21 225.088C585.05 225.088 585.823 224.948 586.53 224.668C587.25 224.375 587.87 223.968 588.39 223.448C588.923 222.915 589.336 222.301 589.63 221.608C589.923 220.901 590.07 220.128 590.07 219.288C590.07 218.448 589.923 217.681 589.63 216.988C589.336 216.281 588.923 215.668 588.39 215.148C587.87 214.615 587.25 214.208 586.53 213.928C585.823 213.635 585.05 213.488 584.21 213.488C583.37 213.488 582.59 213.635 581.87 213.928C581.15 214.208 580.523 214.615 579.99 215.148C579.47 215.668 579.056 216.281 578.75 216.988C578.456 217.681 578.31 218.448 578.31 219.288C578.31 220.115 578.456 220.881 578.75 221.588C579.056 222.295 579.47 222.915 579.99 223.448C580.523 223.968 581.15 224.375 581.87 224.668C582.59 224.948 583.37 225.088 584.21 225.088ZM597.992 226.288V213.568H593.072V212.288H604.392V213.568H599.472V226.288H597.992ZM617.596 212.288H619.056V226.288H617.596V212.288ZM608.836 226.288H607.356V212.288H608.836V226.288ZM617.736 219.828H608.676V218.528H617.736V219.828ZM625.545 218.548H632.945V219.808H625.545V218.548ZM625.705 225.008H634.125V226.288H624.225V212.288H633.825V213.568H625.705V225.008ZM638.204 226.288V212.288H643.444C644.631 212.288 645.651 212.481 646.504 212.868C647.358 213.241 648.011 213.788 648.464 214.508C648.931 215.215 649.164 216.075 649.164 217.088C649.164 218.075 648.931 218.928 648.464 219.648C648.011 220.355 647.358 220.901 646.504 221.288C645.651 221.661 644.631 221.848 643.444 221.848H639.024L639.684 221.168V226.288H638.204ZM647.764 226.288L644.164 221.208H645.764L649.384 226.288H647.764ZM639.684 221.288L639.024 220.588H643.404C644.804 220.588 645.864 220.281 646.584 219.668C647.318 219.055 647.684 218.195 647.684 217.088C647.684 215.968 647.318 215.101 646.584 214.488C645.864 213.875 644.804 213.568 643.404 213.568H639.024L639.684 212.868V221.288Z" fill="black"/>
</svg>
